<svg width="500" height="280" viewBox="0 0 500 280" fill="none" xmlns="http://www.w3.org/2000/svg">
<mask id="path-1-outside-1_124_1037" maskUnits="userSpaceOnUse" x="17" y="52" width="471" height="190" fill="black">
<rect fill="white" x="17" y="52" width="471" height="190"/>
<path d="M94.7031 236V194.123H23.0986V155.865L91.8596 58.152H149.764V156.382H174.58V194.123H149.764V236H94.7031ZM61.0981 156.382H94.7031V102.097L61.0981 156.382ZM401.167 236V194.123H329.562V155.865L398.323 58.152H456.227V156.382H481.043V194.123H456.227V236H401.167ZM367.562 156.382H401.167V102.097L367.562 156.382Z"/>
</mask>
<path d="M94.7031 236H88.7031V242H94.7031V236ZM94.7031 194.123H100.703V188.123H94.7031V194.123ZM23.0986 194.123H17.0986V200.123H23.0986V194.123ZM23.0986 155.865L18.1918 152.412L17.0986 153.965V155.865H23.0986ZM91.8596 58.152V52.152H88.7451L86.9528 54.699L91.8596 58.152ZM149.764 58.152H155.764V52.152H149.764V58.152ZM149.764 156.382H143.764V162.382H149.764V156.382ZM174.58 156.382H180.58V150.382H174.58V156.382ZM174.58 194.123V200.123H180.58V194.123H174.58ZM149.764 194.123V188.123H143.764V194.123H149.764ZM149.764 236V242H155.764V236H149.764ZM61.0981 156.382L55.9965 153.224L50.3272 162.382H61.0981V156.382ZM94.7031 156.382V162.382H100.703V156.382H94.7031ZM94.7031 102.097H100.703V81.0055L89.6015 98.9389L94.7031 102.097ZM100.703 236V194.123H88.7031V236H100.703ZM94.7031 188.123H23.0986V200.123H94.7031V188.123ZM29.0986 194.123V155.865H17.0986V194.123H29.0986ZM28.0054 159.318L96.7664 61.605L86.9528 54.699L18.1918 152.412L28.0054 159.318ZM91.8596 64.152H149.764V52.152H91.8596V64.152ZM143.764 58.152V156.382H155.764V58.152H143.764ZM149.764 162.382H174.58V150.382H149.764V162.382ZM168.58 156.382V194.123H180.58V156.382H168.58ZM174.58 188.123H149.764V200.123H174.58V188.123ZM143.764 194.123V236H155.764V194.123H143.764ZM149.764 230H94.7031V242H149.764V230ZM61.0981 162.382H94.7031V150.382H61.0981V162.382ZM100.703 156.382V102.097H88.7031V156.382H100.703ZM89.6015 98.9389L55.9965 153.224L66.1997 159.54L99.8047 105.255L89.6015 98.9389ZM401.167 236H395.167V242H401.167V236ZM401.167 194.123H407.167V188.123H401.167V194.123ZM329.562 194.123H323.562V200.123H329.562V194.123ZM329.562 155.865L324.656 152.412L323.562 153.965V155.865H329.562ZM398.323 58.152V52.152H395.209L393.417 54.699L398.323 58.152ZM456.227 58.152H462.227V52.152H456.227V58.152ZM456.227 156.382H450.227V162.382H456.227V156.382ZM481.043 156.382H487.043V150.382H481.043V156.382ZM481.043 194.123V200.123H487.043V194.123H481.043ZM456.227 194.123V188.123H450.227V194.123H456.227ZM456.227 236V242H462.227V236H456.227ZM367.562 156.382L362.46 153.224L356.791 162.382H367.562V156.382ZM401.167 156.382V162.382H407.167V156.382H401.167ZM401.167 102.097H407.167V81.0055L396.065 98.9389L401.167 102.097ZM407.167 236V194.123H395.167V236H407.167ZM401.167 188.123H329.562V200.123H401.167V188.123ZM335.562 194.123V155.865H323.562V194.123H335.562ZM334.469 159.318L403.23 61.605L393.417 54.699L324.656 152.412L334.469 159.318ZM398.323 64.152H456.227V52.152H398.323V64.152ZM450.227 58.152V156.382H462.227V58.152H450.227ZM456.227 162.382H481.043V150.382H456.227V162.382ZM475.043 156.382V194.123H487.043V156.382H475.043ZM481.043 188.123H456.227V200.123H481.043V188.123ZM450.227 194.123V236H462.227V194.123H450.227ZM456.227 230H401.167V242H456.227V230ZM367.562 162.382H401.167V150.382H367.562V162.382ZM407.167 156.382V102.097H395.167V156.382H407.167ZM396.065 98.9389L362.46 153.224L372.664 159.54L406.269 105.255L396.065 98.9389Z" fill="white" mask="url(#path-1-outside-1_124_1037)"/>
<rect x="162.689" y="49.746" width="193.508" height="193.508" rx="96.7541" fill="#202123"/>
<path d="M262.79 47.5734C208.24 46.0532 162.628 89.195 161.108 143.745C159.588 198.294 202.729 243.906 257.279 245.427C311.829 246.947 357.441 203.805 358.961 149.255C360.481 94.7056 317.339 49.0936 262.79 47.5734ZM353.726 149.111C352.284 200.771 309.09 241.626 257.43 240.191C205.763 238.75 164.908 195.549 166.35 143.889C167.785 92.2288 210.986 51.3739 262.646 52.8154C314.306 54.257 355.161 97.4511 353.726 149.111Z" fill="white"/>
<path d="M201.91 98.4536C202.644 98.4536 203.365 98.1522 203.889 97.5559C210.455 90.0271 218.298 83.9922 227.196 79.6151C228.494 78.973 229.031 77.4069 228.389 76.1095C227.747 74.8121 226.181 74.2748 224.883 74.917C215.356 79.602 206.969 86.0628 199.938 94.1158C198.988 95.2036 199.099 96.8614 200.187 97.8115C200.685 98.2439 201.301 98.4602 201.91 98.4602V98.4536Z" fill="white"/>
<path d="M292.879 79.6152C301.777 83.9923 309.621 90.0272 316.186 97.556C316.704 98.1523 317.431 98.4537 318.165 98.4537C318.774 98.4537 319.39 98.244 319.888 97.805C320.976 96.8549 321.094 95.1971 320.137 94.1094C313.113 86.0563 304.719 79.5956 295.192 74.9105C293.895 74.2684 292.322 74.8057 291.686 76.1031C291.044 77.4005 291.582 78.9731 292.879 79.6087V79.6152Z" fill="white"/>
<path d="M260.038 208.097C293.999 208.097 321.631 180.465 321.631 146.503C321.631 112.541 293.999 84.9095 260.038 84.9095C226.076 84.9095 198.444 112.541 198.444 146.503C198.444 180.465 226.076 208.097 260.038 208.097ZM260.038 90.1516C291.11 90.1516 316.389 115.431 316.389 146.503C316.389 177.575 291.11 202.855 260.038 202.855C228.966 202.855 203.686 177.575 203.686 146.503C203.686 115.431 228.966 90.1516 260.038 90.1516Z" fill="white"/>
<path d="M282.467 138.706C284.282 138.706 285.75 137.238 285.75 135.423V128.451H264.009V135.017H279.184V135.429C279.184 137.245 280.652 138.712 282.467 138.712V138.706Z" fill="white"/>
<path d="M223.403 164.549H234.326H240.885H255.785V157.983H240.885H234.326H226.685V135.017H255.792V128.451H223.403C221.588 128.451 220.12 129.919 220.12 131.734V161.266C220.12 163.081 221.588 164.549 223.403 164.549Z" fill="white"/>
<path d="M296.666 169.057C294.851 169.057 293.383 170.525 293.383 172.34V172.753H273.366V172.785H261.65V172.753H240.885V165.381H234.326V176.035C234.326 177.851 235.793 179.318 237.608 179.318H299.949V172.346C299.949 170.531 298.481 169.064 296.666 169.064V169.057Z" fill="white"/>
<path d="M263.176 167.124V164.549V157.983V155.408V150.618H256.617V155.408V157.983V164.549V167.124V171.96H263.176V167.124Z" fill="white"/>
<path d="M285.743 157.577C285.743 155.762 284.276 154.294 282.461 154.294C280.645 154.294 279.178 155.762 279.178 157.577V157.99H264.002V164.555H285.743V157.584V157.577Z" fill="white"/>
<path d="M263.176 143.22H237.602C235.787 143.22 234.319 144.688 234.319 146.503V157.158H240.878V149.786H256.604L263.17 149.793L293.377 149.786V150.199C293.377 152.014 294.845 153.482 296.66 153.482C298.475 153.482 299.943 152.014 299.943 150.199V143.227H263.17L263.176 143.22Z" fill="white"/>
<path d="M223.403 123.943C225.218 123.943 226.686 122.475 226.686 120.66V120.247H256.65V142.388H263.216V120.247H296.673C298.488 120.247 299.956 118.78 299.956 116.965V113.682H223.409C221.594 113.682 220.126 115.15 220.126 116.965V120.654C220.126 122.469 221.594 123.936 223.409 123.936L223.403 123.943Z" fill="white"/>
<path d="M256.965 70.9331L256.689 72.5385C256.604 73.0299 256.807 73.5279 257.214 73.8228C257.62 74.1177 258.151 74.157 258.596 73.9211L260.038 73.161L261.479 73.9211C261.669 74.0194 261.879 74.0718 262.089 74.0718C262.357 74.0718 262.633 73.9866 262.862 73.8228C263.268 73.5279 263.465 73.0299 263.379 72.5385L263.104 70.9331L264.271 69.793C264.624 69.4457 264.756 68.9215 264.605 68.4497C264.454 67.9779 264.041 67.6307 263.543 67.5586L261.931 67.3227L261.211 65.8615C260.988 65.4159 260.536 65.1342 260.038 65.1342C259.54 65.1342 259.081 65.4159 258.865 65.8615L258.144 67.3227L256.532 67.5586C256.041 67.6307 255.628 67.9779 255.477 68.4497C255.326 68.9215 255.451 69.4457 255.811 69.793L256.978 70.9331H256.965Z" fill="white"/>
<path d="M274.656 73.554L274.381 75.1593C274.296 75.6508 274.499 76.1488 274.899 76.4436C275.305 76.7385 275.836 76.7778 276.281 76.5419L277.723 75.7818L279.165 76.5419C279.355 76.6402 279.564 76.6926 279.774 76.6926C280.043 76.6926 280.318 76.6075 280.547 76.4436C280.953 76.1488 281.15 75.6508 281.065 75.1593L280.79 73.554L281.956 72.4138C282.31 72.0666 282.441 71.5424 282.29 71.0706C282.139 70.5988 281.727 70.2515 281.229 70.1794L279.617 69.9435L278.896 68.4823C278.673 68.0368 278.221 67.755 277.723 67.755C277.225 67.755 276.766 68.0368 276.55 68.4823L275.829 69.9435L274.217 70.1794C273.726 70.2515 273.313 70.5988 273.156 71.0706C272.999 71.5424 273.13 72.0666 273.49 72.4138L274.656 73.554Z" fill="white"/>
<path d="M239.273 73.554L238.998 75.1593C238.912 75.6508 239.116 76.1488 239.522 76.4436C239.928 76.7385 240.459 76.7778 240.904 76.5419L242.346 75.7818L243.787 76.5419C243.977 76.6402 244.187 76.6926 244.397 76.6926C244.665 76.6926 244.941 76.6075 245.17 76.4436C245.576 76.1488 245.773 75.6508 245.694 75.1593L245.419 73.554L246.585 72.4138C246.946 72.0666 247.07 71.5424 246.92 71.0706C246.762 70.5988 246.356 70.2515 245.865 70.1794L244.253 69.9435L243.532 68.4823C243.309 68.0368 242.857 67.755 242.359 67.755C241.861 67.755 241.402 68.0368 241.186 68.4823L240.465 69.9435L238.853 70.1794C238.362 70.2515 237.949 70.5988 237.798 71.0706C237.648 71.5424 237.772 72.0666 238.133 72.4138L239.299 73.554H239.273Z" fill="white"/>
<path d="M190.332 121.224L193.425 122.514L197.841 111.952L194.742 110.661L193.53 113.57L182.62 109.01L180.641 113.754L191.544 118.314L190.332 121.224Z" fill="white"/>
<path d="M185.391 133.13C186.545 132.56 187.279 131.59 187.58 130.214C187.777 129.31 187.744 128.49 187.475 127.763C187.206 127.036 186.728 126.426 186.034 125.948L192.324 127.331L192.652 122.639L178.452 119.527L177.456 124.074L182.495 125.181C183.026 125.299 183.478 125.509 183.852 125.804C184.225 126.105 184.481 126.44 184.631 126.82C184.782 127.2 184.821 127.56 184.743 127.907C184.638 128.379 184.395 128.713 184.002 128.91C183.616 129.1 183.111 129.133 182.495 128.995L176.657 127.717L175.667 132.238L181.054 133.418C182.79 133.798 184.238 133.706 185.391 133.136V133.13Z" fill="white"/>
<path d="M178.013 142.106C178.04 141.458 178.177 140.94 178.42 140.554C178.662 140.167 179.049 139.892 179.566 139.741L180.156 146.385C180.274 146.418 180.464 146.444 180.726 146.451C181.742 146.49 182.666 146.339 183.491 145.992C184.323 145.645 184.992 145.094 185.503 144.341C186.014 143.587 186.289 142.67 186.335 141.582C186.381 140.449 186.191 139.413 185.758 138.47C185.326 137.526 184.69 136.76 183.845 136.183C183 135.606 182.017 135.292 180.903 135.246C179.815 135.2 178.832 135.429 177.948 135.921C177.07 136.412 176.362 137.127 175.831 138.05C175.301 138.981 175.012 140.049 174.96 141.274C174.894 142.906 175.13 144.413 175.681 145.809L178.656 145.376C178.19 144.197 177.974 143.102 178.013 142.106ZM183.124 140.193C183.511 140.521 183.688 140.947 183.668 141.471C183.629 142.355 183.144 142.893 182.214 143.089L181.604 139.643C182.233 139.682 182.744 139.866 183.124 140.193Z" fill="white"/>
<path d="M180.693 161.797C180.543 161.417 180.425 161.004 180.346 160.559C180.15 159.386 180.333 158.409 180.91 157.63C181.486 156.85 182.391 156.358 183.622 156.149C184.88 155.932 185.903 156.083 186.682 156.588C187.462 157.092 187.954 157.931 188.15 159.091C188.294 159.929 188.255 160.906 188.045 162.02L191.518 162.033C191.774 161.437 191.931 160.749 191.996 159.962C192.055 159.176 192.023 158.39 191.885 157.61C191.636 156.162 191.079 154.91 190.208 153.868C189.336 152.82 188.248 152.066 186.945 151.601C185.641 151.136 184.251 151.031 182.771 151.28C181.322 151.529 180.058 152.093 178.977 152.99C177.895 153.882 177.116 154.976 176.624 156.273C176.139 157.571 176.015 158.947 176.264 160.395C176.519 161.889 177.122 163.206 178.072 164.339L181.408 163.147C181.08 162.623 180.838 162.17 180.687 161.79L180.693 161.797Z" fill="white"/>
<path d="M187.305 176.678C188.36 176.304 189.198 175.727 189.828 174.941C190.457 174.155 190.83 173.231 190.961 172.163C191.092 171.095 190.941 169.974 190.529 168.795C190.116 167.629 189.526 166.672 188.759 165.925C187.993 165.171 187.115 164.686 186.125 164.464C185.136 164.241 184.107 164.313 183.059 164.686C182.004 165.06 181.165 165.643 180.529 166.436C179.894 167.229 179.514 168.159 179.383 169.234C179.245 170.302 179.383 171.422 179.802 172.582C180.222 173.762 180.818 174.725 181.591 175.472C182.364 176.219 183.242 176.704 184.238 176.92C185.228 177.136 186.256 177.058 187.324 176.678H187.305ZM182.921 171.514C182.718 170.944 182.764 170.4 183.059 169.889C183.354 169.371 183.832 168.998 184.494 168.762C185.156 168.526 185.765 168.52 186.322 168.736C186.872 168.952 187.252 169.345 187.455 169.915C187.659 170.485 187.613 171.029 187.318 171.547C187.023 172.065 186.545 172.438 185.883 172.674C185.215 172.91 184.612 172.916 184.055 172.7C183.504 172.484 183.124 172.091 182.921 171.521V171.514Z" fill="white"/>
<path d="M201.288 193.917C201.819 193.151 202.094 192.377 202.127 191.591C202.159 190.805 201.943 190.058 201.478 189.344C200.502 187.843 199.08 187.129 197.225 187.214C197.664 186.539 197.894 185.818 197.907 185.045C197.92 184.272 197.691 183.525 197.219 182.798C196.74 182.057 196.144 181.533 195.443 181.225C194.742 180.917 193.89 180.793 192.894 180.845L194.781 179.62L192.363 175.904L183.229 181.854L185.772 185.753L190.463 182.693C190.968 182.365 191.498 182.228 192.049 182.293C192.599 182.359 193.012 182.595 193.281 183.014C193.536 183.407 193.576 183.82 193.399 184.239C193.222 184.665 192.815 185.078 192.186 185.491L187.567 188.498L190.083 192.364L194.775 189.304C195.279 188.977 195.81 188.846 196.36 188.918C196.917 188.99 197.33 189.232 197.599 189.652C197.848 190.032 197.881 190.438 197.704 190.864C197.527 191.29 197.12 191.703 196.491 192.115L191.872 195.123L194.414 199.022L199.034 196.014C200.01 195.378 200.757 194.677 201.288 193.917Z" fill="white"/>
<path d="M218.331 206.321C218.134 205.561 217.715 204.906 217.06 204.355C215.69 203.196 214.124 202.927 212.375 203.543C212.604 202.77 212.611 202.016 212.401 201.269C212.191 200.522 211.759 199.873 211.097 199.31C210.422 198.74 209.708 198.406 208.948 198.314C208.188 198.222 207.336 198.347 206.399 198.687L207.854 196.971L204.466 194.107L197.435 202.429L200.987 205.43L204.604 201.151C204.99 200.692 205.462 200.411 206.006 200.312C206.55 200.214 207.015 200.326 207.395 200.647C207.755 200.948 207.906 201.328 207.86 201.787C207.808 202.245 207.546 202.763 207.061 203.333L203.503 207.546L207.021 210.521L210.638 206.242C211.025 205.784 211.497 205.509 212.047 205.41C212.598 205.319 213.063 205.43 213.443 205.758C213.79 206.052 213.941 206.426 213.888 206.885C213.836 207.343 213.574 207.861 213.089 208.431L209.531 212.644L213.082 215.645L216.64 211.432C217.387 210.547 217.912 209.656 218.193 208.772C218.482 207.887 218.528 207.062 218.331 206.301V206.321Z" fill="white"/>
<path d="M230.663 214.944C230.571 213.942 230.204 213.011 229.562 212.153C228.92 211.294 228.035 210.58 226.921 210.017C225.821 209.46 224.733 209.178 223.658 209.165C222.584 209.152 221.614 209.407 220.742 209.932C219.871 210.456 219.183 211.216 218.678 212.212C218.174 213.208 217.971 214.21 218.062 215.226C218.154 216.235 218.521 217.172 219.163 218.037C219.805 218.902 220.677 219.616 221.778 220.173C222.892 220.737 223.992 221.018 225.067 221.025C226.142 221.025 227.111 220.769 227.976 220.245C228.841 219.721 229.529 218.948 230.04 217.939C230.545 216.943 230.748 215.94 230.663 214.944ZM226.24 216.025C225.925 216.654 225.486 217.087 224.936 217.31C224.386 217.532 223.842 217.513 223.304 217.238C222.767 216.969 222.426 216.543 222.276 215.966C222.132 215.39 222.217 214.787 222.531 214.158C222.846 213.529 223.285 213.103 223.835 212.874C224.386 212.651 224.929 212.671 225.467 212.946C226.004 213.214 226.345 213.64 226.495 214.217C226.64 214.794 226.554 215.396 226.24 216.025Z" fill="white"/>
<path d="M241.592 215.56C239.81 215.049 238.277 215.495 236.986 216.897L237.609 214.734L233.349 213.509L230.342 223.98L234.817 225.264L236.239 220.304C236.39 219.78 236.626 219.347 236.947 218.994C237.268 218.64 237.622 218.404 238.015 218.279C238.401 218.155 238.768 218.142 239.103 218.24C239.568 218.371 239.889 218.64 240.053 219.039C240.223 219.439 240.216 219.944 240.046 220.553L238.395 226.3L242.844 227.577L244.364 222.276C244.856 220.566 244.856 219.118 244.364 217.926C243.873 216.733 242.949 215.947 241.592 215.56Z" fill="white"/>
<path d="M258.354 225.428L257.305 217.998L253.525 217.742L251.519 224.793L250.746 217.559L246.258 217.257L247.935 228.442L253.02 228.783L254.58 223.03L255.418 228.947L260.68 229.301L263.714 218.43L260.103 218.188L258.354 225.428Z" fill="white"/>
<path d="M271.767 225.33C271.125 225.409 270.594 225.363 270.168 225.186C269.742 225.009 269.414 224.675 269.178 224.19L275.639 222.512C275.652 222.394 275.639 222.198 275.613 221.936C275.489 220.927 275.181 220.042 274.702 219.282C274.217 218.522 273.569 217.952 272.743 217.572C271.917 217.192 270.967 217.074 269.886 217.211C268.766 217.356 267.77 217.716 266.911 218.299C266.053 218.882 265.404 219.636 264.972 220.566C264.539 221.497 264.395 222.512 264.533 223.62C264.67 224.701 265.05 225.631 265.686 226.418C266.322 227.204 267.134 227.781 268.137 228.154C269.139 228.528 270.247 228.632 271.459 228.482C273.077 228.279 274.532 227.794 275.81 227.021L274.892 224.157C273.805 224.812 272.763 225.206 271.773 225.33H271.767ZM269.041 220.606C269.296 220.173 269.69 219.924 270.214 219.859C271.092 219.747 271.701 220.14 272.048 221.025L268.753 222.198C268.687 221.569 268.785 221.038 269.041 220.606Z" fill="white"/>
<path d="M283.908 213.935L284.675 216.379C284.098 215.665 283.43 215.206 282.683 214.99C281.936 214.774 281.189 214.787 280.462 215.016C279.564 215.298 278.784 215.796 278.129 216.51C277.474 217.225 277.035 218.063 276.819 219.033C276.596 220.003 276.648 220.992 276.963 222.001C277.284 223.024 277.815 223.882 278.549 224.57C279.282 225.258 280.128 225.717 281.071 225.953C282.015 226.188 282.945 226.162 283.856 225.88C285.455 225.382 286.385 224.314 286.641 222.676L287.25 224.635L291.673 223.253L288.331 212.559L283.908 213.942V213.935ZM285.435 221.077C285.16 221.602 284.741 221.956 284.184 222.126C283.607 222.303 283.044 222.257 282.5 221.982C281.949 221.707 281.582 221.274 281.399 220.684C281.222 220.108 281.268 219.551 281.556 219.007C281.838 218.463 282.277 218.103 282.867 217.913C283.397 217.749 283.935 217.795 284.472 218.057C285.009 218.319 285.376 218.732 285.586 219.282L285.638 219.452C285.782 220.009 285.717 220.547 285.442 221.071L285.435 221.077Z" fill="white"/>
<path d="M298.429 216.137C297.977 216.36 297.623 216.425 297.367 216.353C297.112 216.274 296.889 216.052 296.706 215.678L292.021 206.111L288.141 208.772L292.669 218.024C293.272 219.256 294.052 220.068 295.009 220.475C295.965 220.881 297.007 220.809 298.134 220.258C299.228 219.721 300.113 219.013 300.775 218.129L299.281 215.423C299.038 215.737 298.757 215.973 298.429 216.137Z" fill="white"/>
<path d="M306.174 211.432C305.814 211.661 305.479 211.753 305.171 211.701C304.863 211.655 304.608 211.471 304.411 211.163L302.406 207.999L304.569 206.629L303.101 204.316L300.938 205.686L298.704 202.167L296.823 203.359L297.321 207.979L295.847 208.909L297.315 211.222L298.507 210.469L300.814 214.099C301.515 215.206 302.367 215.875 303.376 216.117C304.385 216.36 305.433 216.13 306.521 215.442C306.98 215.147 307.419 214.787 307.832 214.361C308.245 213.929 308.552 213.529 308.743 213.142L306.941 210.626C306.764 210.947 306.508 211.216 306.167 211.426L306.174 211.432Z" fill="white"/>
<path d="M313.768 197.062C312.504 196.84 311.337 197.194 310.276 198.124C309.581 198.74 309.129 199.415 308.913 200.162C308.697 200.909 308.73 201.682 308.998 202.481L304.739 197.652L301.699 201.243L311.311 212.146L314.804 209.067L311.39 205.194C311.03 204.788 310.787 204.349 310.669 203.89C310.551 203.432 310.538 202.999 310.643 202.606C310.748 202.213 310.931 201.898 311.193 201.662C311.56 201.341 311.953 201.217 312.379 201.289C312.805 201.361 313.231 201.636 313.651 202.108L317.602 206.59L321.075 203.53L317.431 199.395C316.258 198.058 315.033 197.279 313.768 197.056V197.062Z" fill="white"/>
<path d="M328.558 187.843C328.4 188.217 328.191 188.59 327.922 188.964C327.234 189.933 326.408 190.49 325.452 190.628C324.495 190.766 323.506 190.477 322.49 189.75C321.448 189.009 320.832 188.184 320.642 187.266C320.452 186.349 320.695 185.419 321.383 184.462C321.874 183.767 322.595 183.106 323.532 182.47L321.094 180C320.491 180.236 319.889 180.616 319.292 181.127C318.696 181.638 318.165 182.221 317.7 182.863C316.848 184.062 316.357 185.34 316.232 186.69C316.108 188.046 316.337 189.35 316.933 190.595C317.523 191.847 318.427 192.908 319.653 193.773C320.852 194.625 322.149 195.116 323.538 195.254C324.934 195.392 326.264 195.169 327.522 194.599C328.78 194.029 329.842 193.144 330.7 191.945C331.578 190.713 332.083 189.357 332.214 187.876L329.016 186.356C328.879 186.959 328.728 187.45 328.571 187.823L328.558 187.843Z" fill="white"/>
<path d="M328.446 177.949L326.441 176.927L324.331 181.074L334.042 186.021L336.152 181.874L331.041 179.272C330.464 178.978 330.189 178.473 330.222 177.752C330.255 177.031 330.582 176.049 331.218 174.804L327.725 173.742C327.371 174.437 327.247 175.138 327.358 175.845C327.47 176.553 327.83 177.254 328.453 177.949H328.446Z" fill="white"/>
<path d="M338.439 166.063C338.55 167.327 338.439 168.435 338.117 169.378C337.908 169.988 337.633 170.446 337.285 170.748C336.938 171.049 336.499 171.2 335.955 171.2L337.285 164.66C337.18 164.595 337.01 164.516 336.755 164.431C335.791 164.103 334.867 163.985 333.97 164.084C333.072 164.182 332.273 164.516 331.571 165.093C330.87 165.669 330.34 166.469 329.992 167.498C329.625 168.572 329.514 169.621 329.658 170.649C329.802 171.678 330.202 172.589 330.844 173.388C331.486 174.181 332.338 174.764 333.4 175.125C334.428 175.479 335.437 175.544 336.42 175.321C337.403 175.099 338.288 174.62 339.061 173.88C339.834 173.139 340.417 172.196 340.811 171.043C341.341 169.496 341.538 167.983 341.413 166.495L338.439 166.063ZM333.976 170.715C333.38 170.499 332.948 170.178 332.672 169.758C332.397 169.339 332.345 168.874 332.515 168.376C332.803 167.543 333.419 167.163 334.369 167.242L333.97 170.721L333.976 170.715Z" fill="white"/>
<path d="M333.21 153.482L335.739 153.868C334.841 154.071 334.14 154.471 333.616 155.048C333.098 155.631 332.777 156.299 332.659 157.053C332.515 157.983 332.62 158.901 332.974 159.798C333.328 160.702 333.891 161.463 334.664 162.085C335.438 162.708 336.348 163.101 337.397 163.265C338.458 163.428 339.461 163.33 340.398 162.963C341.341 162.603 342.121 162.046 342.75 161.305C343.379 160.565 343.766 159.713 343.91 158.77C344.165 157.112 343.615 155.808 342.252 154.858L344.277 155.166L344.978 150.585L333.904 148.888L333.203 153.469L333.21 153.482ZM336.329 156.168C336.414 155.618 336.689 155.159 337.167 154.792C337.639 154.425 338.17 154.274 338.753 154.333L338.93 154.36C339.494 154.478 339.952 154.772 340.3 155.251C340.653 155.729 340.784 156.26 340.693 156.837C340.601 157.433 340.313 157.918 339.821 158.285C339.33 158.658 338.786 158.796 338.17 158.704C337.574 158.612 337.095 158.317 336.728 157.826C336.368 157.335 336.23 156.778 336.322 156.168H336.329Z" fill="white"/>
<path d="M341.25 139.512C341.433 139.833 341.525 140.193 341.531 140.586C341.538 141.012 341.44 141.346 341.236 141.582C341.033 141.818 340.752 141.943 340.385 141.949L336.637 142.008L336.597 139.453L333.865 139.499L333.904 142.054L329.737 142.12L329.776 144.348L333.976 146.333L334.003 148.076L336.735 148.03L336.709 146.621L341.007 146.549C342.318 146.53 343.333 146.149 344.067 145.416C344.801 144.682 345.155 143.673 345.129 142.375C345.122 141.831 345.043 141.268 344.893 140.691C344.742 140.115 344.559 139.643 344.329 139.276L341.243 139.505L341.25 139.512Z" fill="white"/>
<path d="M340.732 132.003C340.765 132.297 340.699 132.54 340.542 132.75C340.378 132.953 340.129 133.077 339.795 133.11L333.242 133.864L333.78 138.509L340.529 137.729C341.885 137.572 342.92 137.107 343.628 136.327C344.336 135.547 344.624 134.545 344.48 133.32C344.414 132.763 344.29 132.238 344.1 131.734C343.91 131.229 343.667 130.83 343.386 130.541L340.365 131.131C340.575 131.419 340.699 131.708 340.732 131.996V132.003Z" fill="white"/>
<path d="M331.421 138.195C331.794 137.67 331.945 137.068 331.866 136.38C331.788 135.724 331.513 135.167 331.034 134.722C330.556 134.276 329.992 134.086 329.35 134.158C328.754 134.23 328.263 134.532 327.876 135.069C327.496 135.606 327.339 136.216 327.417 136.884C327.489 137.526 327.771 138.07 328.249 138.522C328.728 138.968 329.285 139.158 329.914 139.086C330.543 139.014 331.041 138.712 331.421 138.188V138.195Z" fill="white"/>
<path d="M331.296 124.362L338.118 124.395L332.089 127.619L333.308 132.586L343.176 126.426L341.905 121.224L330.333 120.437L331.296 124.362Z" fill="white"/>
<path d="M329.691 117.659C330.484 118.327 331.388 118.747 332.397 118.917C333.406 119.081 334.428 118.95 335.457 118.518C336.46 118.098 337.259 117.476 337.842 116.65C338.432 115.831 338.766 114.887 338.851 113.819C338.937 112.751 338.747 111.657 338.275 110.537C337.646 109.029 336.781 107.765 335.7 106.736L333.19 108.387C334.114 109.259 334.769 110.157 335.156 111.08C335.405 111.677 335.503 112.201 335.451 112.66C335.398 113.118 335.162 113.524 334.756 113.885L331.401 108.119C331.283 108.138 331.1 108.197 330.857 108.302C329.92 108.695 329.154 109.226 328.551 109.894C327.948 110.563 327.575 111.343 327.43 112.24C327.286 113.138 327.43 114.088 327.85 115.091C328.289 116.132 328.905 116.991 329.698 117.666L329.691 117.659ZM330.936 111.972L332.954 114.835C332.364 115.064 331.827 115.117 331.342 114.986C330.857 114.855 330.51 114.547 330.307 114.055C329.966 113.243 330.176 112.548 330.936 111.972Z" fill="white"/>
<path d="M255.464 105.576H253.072V104.253H255.254V102.995H253.072V101.75H255.464V100.236H250.655V107.09H255.464V105.576Z" fill="white"/>
<path d="M257.974 104.338C258.413 104.462 258.74 104.567 258.963 104.659C259.186 104.751 259.33 104.823 259.402 104.895C259.474 104.967 259.513 105.046 259.513 105.137C259.513 105.275 259.448 105.38 259.31 105.452C259.173 105.524 258.956 105.557 258.668 105.557C258.131 105.557 257.521 105.432 256.833 105.19L256.335 106.736C256.978 107.083 257.77 107.254 258.707 107.254C259.644 107.254 260.352 107.057 260.83 106.664C261.309 106.271 261.551 105.701 261.551 104.967C261.551 104.436 261.374 103.977 261.014 103.597C260.654 103.217 260.129 102.929 259.428 102.746C258.983 102.621 258.688 102.516 258.544 102.431C258.399 102.346 258.327 102.248 258.327 102.13C258.327 101.887 258.544 101.769 258.983 101.769C259.245 101.769 259.507 101.795 259.782 101.854C260.057 101.913 260.385 102.005 260.752 102.13L261.289 100.623C260.968 100.452 260.608 100.321 260.195 100.229C259.782 100.138 259.363 100.092 258.937 100.092C258.118 100.092 257.469 100.282 256.991 100.655C256.506 101.029 256.27 101.586 256.27 102.313C256.27 102.785 256.421 103.204 256.715 103.565C257.017 103.925 257.436 104.187 257.974 104.344V104.338Z" fill="white"/>
<path d="M263.55 107.09H265.869V101.75H267.298V100.236H262.121V101.75H263.55V107.09Z" fill="white"/>
<path d="M268.602 107.149C268.962 107.149 269.237 107.057 269.428 106.874C269.618 106.69 269.716 106.441 269.716 106.133C269.716 105.851 269.611 105.616 269.408 105.419C269.205 105.222 268.93 105.124 268.602 105.124C268.274 105.124 267.993 105.216 267.783 105.406C267.58 105.589 267.475 105.832 267.475 106.133C267.475 106.435 267.573 106.671 267.776 106.861C267.973 107.051 268.255 107.149 268.602 107.149Z" fill="white"/>
<path d="M252.581 189.632C252.981 189.121 253.177 188.57 253.177 187.974C253.177 187.574 253.085 187.221 252.902 186.913C252.719 186.605 252.456 186.356 252.116 186.179C251.775 186.002 251.375 185.91 250.917 185.91C250.53 185.91 250.163 185.956 249.816 186.048C249.468 186.139 249.115 186.277 248.754 186.46L249.233 187.915C249.672 187.66 250.091 187.535 250.491 187.535C250.707 187.535 250.877 187.594 251.002 187.699C251.126 187.81 251.192 187.968 251.192 188.177C251.192 188.498 250.995 188.898 250.602 189.383C250.209 189.868 249.632 190.451 248.859 191.145V192.522H253.125V191.093H250.766C251.565 190.628 252.168 190.143 252.568 189.632H252.581Z" fill="white"/>
<path d="M258.531 186.277C258.065 185.989 257.541 185.844 256.958 185.844C256.375 185.844 255.844 185.989 255.379 186.277C254.914 186.565 254.547 186.965 254.285 187.483C254.023 187.994 253.891 188.57 253.891 189.219C253.891 189.868 254.023 190.451 254.285 190.962C254.547 191.473 254.914 191.873 255.379 192.168C255.844 192.456 256.375 192.6 256.958 192.6C257.541 192.6 258.072 192.456 258.537 192.168C259.002 191.879 259.369 191.473 259.631 190.962C259.894 190.444 260.025 189.868 260.025 189.219C260.025 188.57 259.894 188 259.631 187.489C259.369 186.972 259.002 186.572 258.537 186.283L258.531 186.277ZM257.869 190.117C257.777 190.385 257.653 190.595 257.495 190.746C257.338 190.896 257.155 190.975 256.965 190.975C256.657 190.975 256.408 190.811 256.205 190.484C256.008 190.156 255.903 189.73 255.903 189.219C255.903 188.708 256.001 188.275 256.191 187.954C256.381 187.633 256.637 187.47 256.958 187.47C257.279 187.47 257.515 187.633 257.712 187.961C257.908 188.289 258.006 188.708 258.006 189.219C258.006 189.553 257.961 189.855 257.869 190.117Z" fill="white"/>
<path d="M264.421 189.632C264.821 189.121 265.018 188.57 265.018 187.974C265.018 187.574 264.926 187.221 264.742 186.913C264.559 186.605 264.297 186.356 263.956 186.179C263.615 186.002 263.216 185.91 262.757 185.91C262.37 185.91 262.004 185.956 261.656 186.048C261.309 186.139 260.955 186.277 260.595 186.46L261.073 187.915C261.512 187.66 261.931 187.535 262.338 187.535C262.554 187.535 262.724 187.594 262.849 187.699C262.973 187.81 263.039 187.968 263.039 188.177C263.039 188.498 262.842 188.898 262.449 189.383C262.056 189.868 261.479 190.451 260.706 191.145V192.522H264.972V191.093H262.613C263.412 190.628 264.015 190.143 264.415 189.632H264.421Z" fill="white"/>
<path d="M270.378 185.982H268.189L265.588 189.56V190.929H268.294V192.522H270.378V190.936H271.315V189.58H270.378V185.982ZM268.294 189.58H267.023L268.294 187.647V189.58Z" fill="white"/>
</svg>
