<svg width="48" height="48" viewBox="0 0 48 48" fill="none" xmlns="http://www.w3.org/2000/svg">
<g clip-path="url(#clip0_25_597)">
<path d="M24 0.5C37 0.5 47.5 11 47.5 24C47.5 37 37 47.5 24 47.5C11 47.5 0.5 37 0.5 24C0.5 11 11 0.5 24 0.5Z" stroke="#5BDEB8"/>
<path d="M26.3333 21.3333C27.0697 21.3333 27.6667 20.7363 27.6667 20C27.6667 19.2636 27.0697 18.6666 26.3333 18.6666C25.597 18.6666 25 19.2636 25 20C25 20.7363 25.597 21.3333 26.3333 21.3333Z" stroke="#5BDEB8" stroke-miterlimit="10"/>
<path d="M21.6666 21.3333C22.403 21.3333 23 20.7363 23 20C23 19.2636 22.403 18.6666 21.6666 18.6666C20.9303 18.6666 20.3333 19.2636 20.3333 20C20.3333 20.7363 20.9303 21.3333 21.6666 21.3333Z" stroke="#5BDEB8" stroke-miterlimit="10"/>
<path d="M28.6666 25.3333C29.403 25.3333 30 24.7363 30 24C30 23.2636 29.403 22.6666 28.6666 22.6666C27.9303 22.6666 27.3333 23.2636 27.3333 24C27.3333 24.7363 27.9303 25.3333 28.6666 25.3333Z" stroke="#5BDEB8" stroke-miterlimit="10"/>
<path d="M30.8666 21C31.4189 21 31.8666 20.5523 31.8666 20C31.8666 19.4477 31.4189 19 30.8666 19C30.3144 19 29.8666 19.4477 29.8666 20C29.8666 20.5523 30.3144 21 30.8666 21Z" stroke="#5BDEB8" stroke-miterlimit="10"/>
<path d="M30.8666 29C31.4189 29 31.8666 28.5523 31.8666 28C31.8666 27.4477 31.4189 27 30.8666 27C30.3144 27 29.8666 27.4477 29.8666 28C29.8666 28.5523 30.3144 29 30.8666 29Z" stroke="#5BDEB8" stroke-miterlimit="10"/>
<path d="M34.3333 25C34.8856 25 35.3333 24.5523 35.3333 24C35.3333 23.4477 34.8856 23 34.3333 23C33.781 23 33.3333 23.4477 33.3333 24C33.3333 24.5523 33.781 25 34.3333 25Z" stroke="#5BDEB8" stroke-miterlimit="10"/>
<path d="M17.0667 21C17.6189 21 18.0667 20.5523 18.0667 20C18.0667 19.4477 17.6189 19 17.0667 19C16.5144 19 16.0667 19.4477 16.0667 20C16.0667 20.5523 16.5144 21 17.0667 21Z" stroke="#5BDEB8" stroke-miterlimit="10"/>
<path d="M17.0667 29C17.6189 29 18.0667 28.5523 18.0667 28C18.0667 27.4477 17.6189 27 17.0667 27C16.5144 27 16.0667 27.4477 16.0667 28C16.0667 28.5523 16.5144 29 17.0667 29Z" stroke="#5BDEB8" stroke-miterlimit="10"/>
<path d="M13.6 25C14.1523 25 14.6 24.5523 14.6 24C14.6 23.4477 14.1523 23 13.6 23C13.0477 23 12.6 23.4477 12.6 24C12.6 24.5523 13.0477 25 13.6 25Z" stroke="#5BDEB8" stroke-miterlimit="10"/>
<path d="M29.2 15.9333C29.7523 15.9333 30.2 15.4856 30.2 14.9333C30.2 14.3811 29.7523 13.9333 29.2 13.9333C28.6477 13.9333 28.2 14.3811 28.2 14.9333C28.2 15.4856 28.6477 15.9333 29.2 15.9333Z" stroke="#5BDEB8" stroke-miterlimit="10"/>
<path d="M18.8 15.9333C19.3523 15.9333 19.8 15.4856 19.8 14.9333C19.8 14.3811 19.3523 13.9333 18.8 13.9333C18.2477 13.9333 17.8 14.3811 17.8 14.9333C17.8 15.4856 18.2477 15.9333 18.8 15.9333Z" stroke="#5BDEB8" stroke-miterlimit="10"/>
<path d="M24.0667 17C24.6189 17 25.0667 16.5523 25.0667 16C25.0667 15.4477 24.6189 15 24.0667 15C23.5144 15 23.0667 15.4477 23.0667 16C23.0667 16.5523 23.5144 17 24.0667 17Z" stroke="#5BDEB8" stroke-miterlimit="10"/>
<path d="M29.2 34.3334C29.7523 34.3334 30.2 33.8857 30.2 33.3334C30.2 32.7811 29.7523 32.3334 29.2 32.3334C28.6477 32.3334 28.2 32.7811 28.2 33.3334C28.2 33.8857 28.6477 34.3334 29.2 34.3334Z" stroke="#5BDEB8" stroke-miterlimit="10"/>
<path d="M18.8 34.3334C19.3523 34.3334 19.8 33.8857 19.8 33.3334C19.8 32.7811 19.3523 32.3334 18.8 32.3334C18.2477 32.3334 17.8 32.7811 17.8 33.3334C17.8 33.8857 18.2477 34.3334 18.8 34.3334Z" stroke="#5BDEB8" stroke-miterlimit="10"/>
<path d="M24.0667 33.2667C24.6189 33.2667 25.0667 32.819 25.0667 32.2667C25.0667 31.7144 24.6189 31.2667 24.0667 31.2667C23.5144 31.2667 23.0667 31.7144 23.0667 32.2667C23.0667 32.819 23.5144 33.2667 24.0667 33.2667Z" stroke="#5BDEB8" stroke-miterlimit="10"/>
<path d="M19.3333 25.3333C20.0697 25.3333 20.6667 24.7363 20.6667 24C20.6667 23.2636 20.0697 22.6666 19.3333 22.6666C18.597 22.6666 18 23.2636 18 24C18 24.7363 18.597 25.3333 19.3333 25.3333Z" stroke="#5BDEB8" stroke-miterlimit="10"/>
<path d="M21.6666 29.3333C22.403 29.3333 23 28.7363 23 28C23 27.2636 22.403 26.6666 21.6666 26.6666C20.9303 26.6666 20.3333 27.2636 20.3333 28C20.3333 28.7363 20.9303 29.3333 21.6666 29.3333Z" stroke="#5BDEB8" stroke-miterlimit="10"/>
<path d="M26.3333 29.3333C27.0697 29.3333 27.6667 28.7363 27.6667 28C27.6667 27.2636 27.0697 26.6666 26.3333 26.6666C25.597 26.6666 25 27.2636 25 28C25 28.7363 25.597 29.3333 26.3333 29.3333Z" stroke="#5BDEB8" stroke-miterlimit="10"/>
<path d="M24 11.2667V11.2667" stroke="#5BDEB8" stroke-width="2" stroke-linecap="round" stroke-linejoin="round"/>
<path d="M31.3333 11.7999V11.7999" stroke="#5BDEB8" stroke-width="1.5" stroke-linecap="round" stroke-linejoin="round"/>
<path d="M31.3333 36.2667V36.2667" stroke="#5BDEB8" stroke-width="1.5" stroke-linecap="round" stroke-linejoin="round"/>
<path d="M34.6667 30V30" stroke="#5BDEB8" stroke-width="1.5" stroke-linecap="round" stroke-linejoin="round"/>
<path d="M34.6667 17.3334V17.3334" stroke="#5BDEB8" stroke-width="1.5" stroke-linecap="round" stroke-linejoin="round"/>
<path d="M13.3333 30V30" stroke="#5BDEB8" stroke-width="1.5" stroke-linecap="round" stroke-linejoin="round"/>
<path d="M13.3333 17.3334V17.3334" stroke="#5BDEB8" stroke-width="1.5" stroke-linecap="round" stroke-linejoin="round"/>
<path d="M16.6667 11.7999V11.7999" stroke="#5BDEB8" stroke-width="1.5" stroke-linecap="round" stroke-linejoin="round"/>
<path d="M16.6667 36.2667V36.2667" stroke="#5BDEB8" stroke-width="1.5" stroke-linecap="round" stroke-linejoin="round"/>
<path d="M24 36.6666V36.6666" stroke="#5BDEB8" stroke-width="2" stroke-linecap="round" stroke-linejoin="round"/>
<path d="M10.0667 24V24" stroke="#5BDEB8" stroke-width="2" stroke-linecap="round" stroke-linejoin="round"/>
<path d="M38 24V24" stroke="#5BDEB8" stroke-width="2" stroke-linecap="round" stroke-linejoin="round"/>
</g>
<defs>
<clipPath id="clip0_25_597">
<rect width="48" height="48" fill="white"/>
</clipPath>
</defs>
</svg>
