<svg width="490" height="470" viewBox="0 0 490 470" fill="none" xmlns="http://www.w3.org/2000/svg">
<path d="M183.608 61.168H292.642L179.453 396.872C178.291 400.322 176.076 403.319 173.121 405.443C170.166 407.566 166.621 408.709 162.984 408.709H78.1288C75.373 408.71 72.6568 408.053 70.2047 406.795C67.7528 405.536 65.6355 403.71 64.0281 401.469C62.4206 399.229 61.3694 396.637 60.9611 393.909C60.5528 391.181 60.7994 388.395 61.6803 385.781L167.134 73.0055C168.297 69.5544 170.512 66.5555 173.467 64.4312C176.422 62.3068 179.969 61.1682 183.608 61.168Z" fill="url(#paint0_linear_183_1101)"/>
<path d="M342.047 286.335H169.146C167.539 286.333 165.968 286.816 164.638 287.721C163.309 288.626 162.282 289.91 161.693 291.407C161.103 292.903 160.978 294.543 161.332 296.113C161.687 297.683 162.505 299.109 163.681 300.206L274.784 404.01C278.019 407.031 282.278 408.71 286.702 408.709H384.606L342.047 286.335Z" fill="#0078D4"/>
<path d="M183.6 61.1693C179.922 61.1552 176.336 62.3187 173.366 64.4899C170.395 66.661 168.196 69.7261 167.089 73.2374L61.803 385.497C60.8629 388.121 60.5677 390.932 60.9425 393.693C61.3173 396.455 62.3511 399.086 63.9564 401.363C65.5616 403.64 67.6912 405.497 70.1648 406.775C72.6385 408.055 75.3836 408.718 78.1677 408.711H165.213C168.455 408.132 171.486 406.7 173.994 404.565C176.503 402.429 178.4 399.665 179.493 396.555L200.489 334.613L275.487 404.637C278.63 407.239 282.572 408.677 286.651 408.711H384.19L341.411 286.337L216.703 286.367L293.028 61.1693H183.6Z" fill="url(#paint1_linear_183_1101)"/>
<path d="M322.871 72.9899C321.71 69.5445 319.498 66.5505 316.548 64.4299C313.597 62.3092 310.056 61.1688 306.424 61.1692H184.906C188.539 61.1694 192.08 62.3101 195.03 64.4307C197.981 66.5512 200.193 69.5448 201.354 72.9899L306.813 385.778C307.694 388.392 307.941 391.179 307.533 393.908C307.125 396.636 306.075 399.229 304.467 401.471C302.859 403.712 300.742 405.538 298.289 406.798C295.837 408.058 293.12 408.715 290.364 408.715H411.886C414.641 408.714 417.358 408.056 419.81 406.797C422.262 405.536 424.379 403.71 425.985 401.469C427.592 399.228 428.643 396.636 429.051 393.907C429.458 391.178 429.211 388.392 428.33 385.778L322.871 72.9899Z" fill="url(#paint2_linear_183_1101)"/>
<defs>
<linearGradient id="paint0_linear_183_1101" x1="223.347" y1="86.922" x2="109.907" y2="421.714" gradientUnits="userSpaceOnUse">
<stop stop-color="#114A8B"/>
<stop offset="1" stop-color="#0669BC"/>
</linearGradient>
<linearGradient id="paint1_linear_183_1101" x1="258.712" y1="242.978" x2="232.514" y2="251.827" gradientUnits="userSpaceOnUse">
<stop stop-opacity="0.3"/>
<stop offset="0.071" stop-opacity="0.2"/>
<stop offset="0.321" stop-opacity="0.1"/>
<stop offset="0.623" stop-opacity="0.05"/>
<stop offset="1" stop-opacity="0"/>
</linearGradient>
<linearGradient id="paint2_linear_183_1101" x1="244.315" y1="77.1565" x2="368.832" y2="408.561" gradientUnits="userSpaceOnUse">
<stop stop-color="#3CCBF4"/>
<stop offset="1" stop-color="#2892DF"/>
</linearGradient>
</defs>
</svg>
