<svg width="48" height="48" viewBox="0 0 48 48" fill="none" xmlns="http://www.w3.org/2000/svg">
<g clip-path="url(#clip0_119_1108)">
<path d="M24 0.5C37 0.5 47.5 11 47.5 24C47.5 37 37 47.5 24 47.5C11 47.5 0.5 37 0.5 24C0.5 11 11 0.5 24 0.5Z" stroke="#5BDEB8"/>
<path d="M26.1438 18.6736L28.0438 22.4736C28.3029 22.9918 28.9938 23.51 29.5695 23.5964L33.0097 24.1721C35.212 24.5463 35.7301 26.1297 34.1468 27.713L31.4695 30.3903C31.0233 30.8365 30.7642 31.7145 30.9082 32.3479L31.6711 35.6729C32.2756 38.2926 30.8794 39.3145 28.562 37.9471L25.3377 36.0327C24.7476 35.6873 23.7976 35.6873 23.2074 36.0327L19.9832 37.9471C17.6657 39.3145 16.2695 38.2926 16.8741 35.6729L17.637 32.3479C17.7809 31.7289 17.5218 30.8509 17.0756 30.3903L14.3984 27.713C12.815 26.1297 13.3332 24.532 15.5354 24.1721L18.9756 23.5964C19.5514 23.4956 20.2423 22.9918 20.5014 22.4736L22.4014 18.6736C23.4233 16.6153 25.1218 16.6153 26.1438 18.6736Z" stroke="#5BDEB8" stroke-linecap="round" stroke-linejoin="round"/>
<path d="M15.6362 19.9547V9.87891" stroke="#5BDEB8" stroke-linecap="round" stroke-linejoin="round"/>
<path d="M32.9092 19.9547V9.87891" stroke="#5BDEB8" stroke-linecap="round" stroke-linejoin="round"/>
<path d="M24.2729 12.7577V9.87891" stroke="#5BDEB8" stroke-linecap="round" stroke-linejoin="round"/>
</g>
<defs>
<clipPath id="clip0_119_1108">
<rect width="48" height="48" fill="white"/>
</clipPath>
</defs>
</svg>
