<svg width="48" height="48" viewBox="0 0 48 48" fill="none" xmlns="http://www.w3.org/2000/svg">
<g clip-path="url(#clip0_119_1112)">
<path d="M24 0.5C37 0.5 47.5 11 47.5 24C47.5 37 37 47.5 24 47.5C11 47.5 0.5 37 0.5 24C0.5 11 11 0.5 24 0.5Z" stroke="#202123"/>
<path d="M32.9091 17.3062C32.8227 17.2918 32.722 17.2918 32.6356 17.3062C30.6493 17.2342 29.0659 15.6077 29.0659 13.5925C29.0659 11.5342 30.7212 9.87891 32.7796 9.87891C34.8379 9.87891 36.4932 11.5486 36.4932 13.5925C36.4788 15.6077 34.8955 17.2342 32.9091 17.3062Z" stroke="#202123" stroke-linecap="round" stroke-linejoin="round"/>
<path d="M31.4265 27.7852C33.3985 28.1162 35.5719 27.7708 37.0977 26.7488C39.1272 25.3958 39.1272 23.1791 37.0977 21.8261C35.5576 20.8041 33.3553 20.4586 31.3833 20.8041" stroke="#202123" stroke-linecap="round" stroke-linejoin="round"/>
<path d="M15.5934 17.3062C15.6797 17.2918 15.7805 17.2918 15.8669 17.3062C17.8532 17.2342 19.4365 15.6077 19.4365 13.5925C19.4365 11.5342 17.7812 9.87891 15.7229 9.87891C13.6646 9.87891 12.0093 11.5486 12.0093 13.5925C12.0237 15.6077 13.607 17.2342 15.5934 17.3062Z" stroke="#202123" stroke-linecap="round" stroke-linejoin="round"/>
<path d="M17.0757 27.7852C15.1037 28.1162 12.9302 27.7708 11.4045 26.7488C9.37494 25.3958 9.37494 23.1791 11.4045 21.8261C12.9446 20.8041 15.1469 20.4586 17.1189 20.8041" stroke="#202123" stroke-linecap="round" stroke-linejoin="round"/>
<path d="M24.2729 28.0586C24.1865 28.0442 24.0857 28.0442 23.9994 28.0586C22.013 27.9867 20.4297 26.3601 20.4297 24.345C20.4297 22.2867 22.085 20.6313 24.1433 20.6313C26.2017 20.6313 27.857 22.301 27.857 24.345C27.8426 26.3601 26.2592 28.001 24.2729 28.0586Z" stroke="#202123" stroke-linecap="round" stroke-linejoin="round"/>
<path d="M20.0842 32.593C18.0546 33.9461 18.0546 36.1627 20.0842 37.5158C22.3872 39.0559 26.1584 39.0559 28.4614 37.5158C30.491 36.1627 30.491 33.9461 28.4614 32.593C26.1728 31.0673 22.3872 31.0673 20.0842 32.593Z" stroke="#202123" stroke-linecap="round" stroke-linejoin="round"/>
</g>
<defs>
<clipPath id="clip0_119_1112">
<rect width="48" height="48" fill="white"/>
</clipPath>
</defs>
</svg>
