<svg width="48" height="48" viewBox="0 0 48 48" fill="none" xmlns="http://www.w3.org/2000/svg">
<g clip-path="url(#clip0_119_1112)">
<path d="M24 0.5C37 0.5 47.5 11 47.5 24C47.5 37 37 47.5 24 47.5C11 47.5 0.5 37 0.5 24C0.5 11 11 0.5 24 0.5Z" stroke="#5BDEB8"/>
<path d="M32.9091 18.3062C32.8227 18.2918 32.722 18.2918 32.6356 18.3062C30.6493 18.2342 29.0659 16.6077 29.0659 14.5925C29.0659 12.5342 30.7212 10.8789 32.7796 10.8789C34.8379 10.8789 36.4932 12.5486 36.4932 14.5925C36.4788 16.6077 34.8955 18.2342 32.9091 18.3062Z" stroke="#5BDEB8" stroke-linecap="round" stroke-linejoin="round"/>
<path d="M31.4265 28.7852C33.3985 29.1162 35.5719 28.7708 37.0977 27.7488C39.1272 26.3958 39.1272 24.1791 37.0977 22.8261C35.5576 21.8041 33.3553 21.4586 31.3833 21.8041" stroke="#5BDEB8" stroke-linecap="round" stroke-linejoin="round"/>
<path d="M15.5934 18.3062C15.6797 18.2918 15.7805 18.2918 15.8669 18.3062C17.8532 18.2342 19.4365 16.6077 19.4365 14.5925C19.4365 12.5342 17.7812 10.8789 15.7229 10.8789C13.6646 10.8789 12.0093 12.5486 12.0093 14.5925C12.0237 16.6077 13.607 18.2342 15.5934 18.3062Z" stroke="#5BDEB8" stroke-linecap="round" stroke-linejoin="round"/>
<path d="M17.0757 28.7852C15.1037 29.1162 12.9302 28.7708 11.4045 27.7488C9.37494 26.3958 9.37494 24.1791 11.4045 22.8261C12.9446 21.8041 15.1469 21.4586 17.1189 21.8041" stroke="#5BDEB8" stroke-linecap="round" stroke-linejoin="round"/>
<path d="M24.2729 29.0586C24.1865 29.0442 24.0857 29.0442 23.9994 29.0586C22.013 28.9867 20.4297 27.3601 20.4297 25.345C20.4297 23.2867 22.085 21.6313 24.1433 21.6313C26.2017 21.6313 27.857 23.301 27.857 25.345C27.8426 27.3601 26.2592 29.001 24.2729 29.0586Z" stroke="#5BDEB8" stroke-linecap="round" stroke-linejoin="round"/>
<path d="M20.0842 33.593C18.0546 34.9461 18.0546 37.1627 20.0842 38.5158C22.3872 40.0559 26.1584 40.0559 28.4614 38.5158C30.491 37.1627 30.491 34.9461 28.4614 33.593C26.1728 32.0673 22.3872 32.0673 20.0842 33.593Z" stroke="#5BDEB8" stroke-linecap="round" stroke-linejoin="round"/>
</g>
<defs>
<clipPath id="clip0_119_1112">
<rect width="48" height="48" fill="white"/>
</clipPath>
</defs>
</svg>
