<svg width="48" height="48" viewBox="0 0 48 48" fill="none" xmlns="http://www.w3.org/2000/svg">
<g clip-path="url(#clip0_25_600)">
<path d="M24 0.5C37 0.5 47.5 11 47.5 24C47.5 37 37 47.5 24 47.5C11 47.5 0.5 37 0.5 24C0.5 11 11 0.5 24 0.5Z" stroke="#5BDEB8"/>
<path d="M22.3334 38.0001H25.6934C26.9734 38.0001 27.8 37.0934 27.56 35.9867L27.0134 33.5735H21.0134L20.4667 35.9867C20.2267 37.0267 21.1334 38.0001 22.3334 38.0001Z" stroke="#5BDEB8" stroke-width="1.5" stroke-linecap="round" stroke-linejoin="round"/>
<path d="M27.0133 33.5601L29.32 31.5067C30.6133 30.3601 30.6667 29.56 29.64 28.2667L25.5733 23.1068C24.72 22.0268 23.32 22.0268 22.4667 23.1068L18.4 28.2667C17.3733 29.56 17.3733 30.4001 18.72 31.5067L21.0267 33.5601" stroke="#5BDEB8" stroke-width="1.5" stroke-linecap="round" stroke-linejoin="round"/>
<path d="M24.0134 22.8267V26.2" stroke="#5BDEB8" stroke-width="1.5" stroke-linecap="round" stroke-linejoin="round"/>
<path d="M22.8667 14.9201L21.8267 13.88C21.2 13.2534 21.2 12.2401 21.8267 11.6134L22.8667 10.5734C23.4934 9.94673 24.5067 9.94673 25.1333 10.5734L26.1733 11.6134C26.8 12.2401 26.8 13.2534 26.1733 13.88L25.1333 14.9201C24.5067 15.5467 23.4934 15.5467 22.8667 14.9201Z" stroke="#5BDEB8" stroke-width="1.5" stroke-linecap="round" stroke-linejoin="round"/>
<path d="M33.9333 21.08H35.4C36.28 21.08 37 21.8 37 22.68V24.1466C37 25.0266 36.28 25.7467 35.4 25.7467H33.9333C33.0533 25.7467 32.3333 25.0266 32.3333 24.1466V22.68C32.3333 21.8 33.0533 21.08 33.9333 21.08Z" stroke="#5BDEB8" stroke-width="1.5" stroke-linecap="round" stroke-linejoin="round"/>
<path d="M14.0667 21.08H12.6C11.72 21.08 11 21.8 11 22.68V24.1466C11 25.0266 11.72 25.7467 12.6 25.7467H14.0667C14.9467 25.7467 15.6667 25.0266 15.6667 24.1466V22.68C15.6667 21.8 14.9467 21.08 14.0667 21.08Z" stroke="#5BDEB8" stroke-width="1.5" stroke-linecap="round" stroke-linejoin="round"/>
<path d="M32.72 21.4667L25.6533 14.4" stroke="#5BDEB8" stroke-width="1.5" stroke-linecap="round" stroke-linejoin="round"/>
<path d="M15.28 21.4667L22.3467 14.4" stroke="#5BDEB8" stroke-width="1.5" stroke-linecap="round" stroke-linejoin="round"/>
</g>
<defs>
<clipPath id="clip0_25_600">
<rect width="48" height="48" fill="white"/>
</clipPath>
</defs>
</svg>
