<svg width="490" height="470" viewBox="0 0 490 470" fill="none" xmlns="http://www.w3.org/2000/svg">
<path d="M465.973 205.946C455.381 198.817 427.553 195.777 407.322 201.223C406.234 181.069 395.84 164.083 376.826 149.274L369.792 144.55L365.101 151.635C355.884 165.626 352 184.276 353.369 201.23C354.457 211.675 358.086 223.412 365.101 231.931C338.764 247.208 314.495 243.739 206.999 243.739H41.0374C40.551 268.015 44.455 314.704 74.1451 352.714C77.422 356.912 81.0189 360.976 84.9229 364.887C109.064 389.06 145.538 406.788 200.08 406.833C283.282 406.91 354.572 361.93 397.94 253.186C412.212 253.423 449.876 255.739 468.309 220.123C468.757 219.521 473 210.676 473 210.676L465.973 205.953V205.946ZM149.346 180.896H102.677V227.566H149.346V180.896ZM209.642 180.896H162.972V227.566H209.642V180.896ZM269.937 180.896H223.268V227.566H269.937V180.896ZM330.233 180.896H283.563V227.566H330.233V180.896ZM89.0638 180.896H42.3814V227.566H89.051V180.896H89.0638ZM149.359 121.945H102.69V168.615H149.359V121.945ZM209.655 121.945H162.985V168.615H209.655V121.945ZM269.95 121.945H223.281V168.615H269.95V121.945ZM269.931 63H223.261V109.67H269.931V63Z" fill="#1D63ED"/>
</svg>
