<svg width="490" height="470" viewBox="0 0 490 470" fill="none" xmlns="http://www.w3.org/2000/svg">
<g clip-path="url(#clip0_183_1114)">
<path d="M244.01 167.906L111.201 33H378.985V167.906C334.374 167.935 289.704 167.862 245.093 167.906C244.727 167.906 244.361 167.906 243.995 167.906H244.01Z" fill="#BCBEC0"/>
<path d="M111.201 170.102V204.106C111.201 215.787 111.171 227.527 111.201 239.209C111.201 245.049 111.171 250.919 111.201 256.76C111.201 258.59 112.299 260.449 112.299 261.151C112.299 261.883 111.142 263.962 111.157 266.011C111.201 274.018 109.707 293.648 111.157 299.913C111.464 301.216 113.983 301.275 115.125 301.626L377.887 301.743L245.532 303.836C243.834 305.168 244.098 306.969 243.922 308.813C241.887 330.653 245.02 353.972 245.122 375.739C245.196 391.914 243.717 408.075 243.878 424.045C243.922 427.88 246.543 432.287 244.024 436.034C242.282 438.64 241.755 435.302 240.95 434.57C195.841 393.744 155.051 345.584 110.147 304.217L110.044 171.639C109.824 170.189 110.439 169.853 111.201 169.018V170.116V170.102Z" fill="#3D5AA7"/>
<path d="M323.028 246.879C306.22 230.045 289.368 213.226 272.545 196.421C264.537 188.414 256.323 180.363 248.402 172.297C245.108 171.726 243.951 170.116 241.814 167.906C241.082 167.906 240.35 167.906 239.618 167.906C240.379 172.868 236.616 172.707 237.421 167.906C196.47 167.92 155.461 167.906 114.495 167.906L111.201 170.101V204.106C111.201 215.787 111.172 227.527 111.201 239.208C112.475 244.039 114.217 252.632 111.201 256.76C111.201 258.589 112.299 260.449 112.299 261.151C112.299 261.883 111.142 263.962 111.157 266.011C111.201 274.018 109.708 293.648 111.157 299.913C111.464 301.216 113.983 301.274 115.125 301.626L377.888 301.743C360.421 282.669 341.27 265.177 323.013 246.894L323.028 246.879ZM270.335 197.533C269.69 202.188 266.338 203.198 263.761 199.158L270.335 197.533ZM260.481 201.632C261.228 201.632 261.843 202.232 261.843 202.994C261.843 203.755 261.242 204.355 260.481 204.355C259.72 204.355 259.119 203.755 259.119 202.994C259.119 202.232 259.72 201.632 260.481 201.632ZM315.341 258.941H312.061V256.76H315.341V258.941ZM326.337 274.545C325.59 274.545 324.975 273.945 324.975 273.184C324.975 272.423 325.575 271.822 326.337 271.822C327.098 271.822 327.698 272.423 327.698 273.184C327.698 273.945 327.098 274.545 326.337 274.545Z" fill="#47A0D8"/>
<path d="M244.01 167.906C244.376 167.906 244.742 167.906 245.108 167.906C246.177 169.223 247.26 171.141 248.402 172.297C245.108 171.726 243.951 170.116 241.813 167.906C242.546 167.906 243.278 167.906 244.01 167.906Z" fill="#4998D3"/>
<path d="M239.617 167.906C240.379 172.868 236.616 172.707 237.421 167.906C238.153 167.906 238.885 167.906 239.617 167.906Z" fill="#4998D3"/>
<path d="M114.495 167.906L111.201 170.102V169.004C112.284 167.818 112.928 167.716 114.495 167.906Z" fill="#4998D3"/>
<path d="M315.326 256.76H312.047V258.941H315.326V256.76Z" fill="#4998D3"/>
<path d="M326.336 274.545C327.088 274.545 327.698 273.936 327.698 273.184C327.698 272.432 327.088 271.823 326.336 271.823C325.584 271.823 324.975 272.432 324.975 273.184C324.975 273.936 325.584 274.545 326.336 274.545Z" fill="#4998D3"/>
<path d="M111.201 256.76C111.171 250.919 111.201 245.049 111.201 239.208C112.474 244.039 114.217 252.632 111.201 256.76Z" fill="#4891CE"/>
<path d="M270.334 197.534C269.69 202.189 266.337 203.199 263.76 199.159L270.334 197.534Z" fill="#4998D3"/>
<path d="M260.481 204.355C261.233 204.355 261.842 203.746 261.842 202.994C261.842 202.242 261.233 201.632 260.481 201.632C259.729 201.632 259.119 202.242 259.119 202.994C259.119 203.746 259.729 204.355 260.481 204.355Z" fill="#4998D3"/>
</g>
<defs>
<clipPath id="clip0_183_1114">
<rect width="269" height="404" fill="white" transform="translate(110 33)"/>
</clipPath>
</defs>
</svg>
