<svg width="48" height="48" viewBox="0 0 48 48" fill="none" xmlns="http://www.w3.org/2000/svg">
<g clip-path="url(#clip0_25_655)">
<path d="M24 0.5C37 0.5 47.5 11 47.5 24C47.5 37 37 47.5 24 47.5C11 47.5 0.5 37 0.5 24C0.5 11 11 0.5 24 0.5Z" stroke="#5BDEB8"/>
<path d="M25.3467 11.8934L33.2133 15.3867C35.48 16.3867 35.48 18.0401 33.2133 19.0401L25.3467 22.5334C24.4533 22.9334 22.9867 22.9334 22.0933 22.5334L14.2267 19.0401C11.96 18.0401 11.96 16.3867 14.2267 15.3867L22.0933 11.8934C22.9867 11.4934 24.4533 11.4934 25.3467 11.8934Z" stroke="#5BDEB8" stroke-width="1.5" stroke-linecap="round" stroke-linejoin="round"/>
<path d="M12 22.6666C12 23.7866 12.84 25.08 13.8667 25.5333L22.92 29.56C23.6133 29.8666 24.4 29.8666 25.08 29.56L34.1333 25.5333C35.16 25.08 36 23.7866 36 22.6666" stroke="#5BDEB8" stroke-width="1.5" stroke-linecap="round" stroke-linejoin="round"/>
<path d="M12 29.3334C12 30.5734 12.7333 31.6934 13.8667 32.2L22.92 36.2267C23.6133 36.5334 24.4 36.5334 25.08 36.2267L34.1333 32.2C35.2667 31.6934 36 30.5734 36 29.3334" stroke="#5BDEB8" stroke-width="1.5" stroke-linecap="round" stroke-linejoin="round"/>
</g>
<defs>
<clipPath id="clip0_25_655">
<rect width="48" height="48" fill="white"/>
</clipPath>
</defs>
</svg>
