<svg width="490" height="470" viewBox="0 0 490 470" fill="none" xmlns="http://www.w3.org/2000/svg">
<path fill-rule="evenodd" clip-rule="evenodd" d="M347.528 119.286V166.429C397.472 173.571 436 217.857 436 269.286C436 326.429 388.91 373.571 331.831 373.571C309 373.571 286.169 365 269.045 352.143L230.517 390.714C231.944 393.571 231.944 397.857 231.944 400.714C231.944 419.286 216.247 435 197.697 435C179.146 435 163.449 419.286 163.449 400.714C163.449 382.143 179.146 366.429 197.697 366.429C201.978 366.429 204.831 366.429 207.685 367.857L246.213 329.286C234.798 312.143 227.663 292.143 227.663 269.286C227.663 247.857 233.371 229.286 244.786 212.143L116.359 112.143C110.652 116.429 103.517 117.857 96.3819 117.857C73.5505 117.857 55 99.2857 55 76.4286C55 53.5714 73.5505 35 96.3819 35C119.213 35 137.764 53.5714 137.764 76.4286C137.764 79.2857 137.764 83.5714 136.337 86.4286L266.191 187.857C280.461 176.429 297.584 169.286 314.708 166.429V119.286C301.865 113.571 293.303 100.714 293.303 86.4286V85C293.303 65 310.427 47.8571 330.404 47.8571H331.831C351.809 47.8571 368.933 65 368.933 85V86.4286C368.933 100.714 360.371 113.571 347.528 119.286ZM279.034 269.286C279.034 297.857 301.865 322.143 331.831 322.143C361.798 322.143 384.629 299.286 384.629 269.286C384.629 240.714 361.798 216.429 331.831 216.429C303.292 216.429 279.034 239.286 279.034 269.286Z" fill="#FF5C35"/>
</svg>
