<svg width="490" height="470" viewBox="0 0 490 470" fill="none" xmlns="http://www.w3.org/2000/svg">
<g clip-path="url(#clip0_183_1148)">
<path d="M362.7 216.604C382.183 220.198 406.199 229.975 403.962 253.786C403.465 259.118 398.766 265.869 399.44 269.972C399.63 271.119 403.595 282.516 404.068 283.142C406.921 286.902 411.549 285.176 415.218 293.227C424.912 314.449 407.134 352.412 393.806 369.767C335.322 445.858 206.765 436.518 155.608 356.821C153.773 353.96 146.399 339.158 145.499 338.638C143.866 337.68 132.822 336.877 128.632 335.446C97.4191 324.853 83.5822 290.425 93.4302 259.887C77.6994 248.194 69.3902 238.133 71.2604 217.384C76.3382 161.238 171.753 51.2395 229.823 48.071C252.04 46.8533 259.13 60.8396 273.784 73.8564C298.037 65.4268 330.054 52.0908 355.195 64.3982C389.663 81.2574 365.162 128.087 345.04 146.684C363.232 166.346 361.504 191.646 362.711 216.604H362.7ZM261.142 82.2742C246.477 62.3529 239.256 57.742 214.826 66.0889C165.669 82.8771 95.5844 161.912 85.6299 212.88C82.3749 229.562 85.3814 238.949 99.8693 248.395C106.202 242.106 110.783 237.211 118.902 233.144C121.506 231.843 128.774 230.165 129.828 229.325C131.106 228.308 140.693 203.8 142.919 199.378C168.711 148.186 211.405 109.797 261.13 82.2742H261.142ZM284.744 112.942C281.394 110.365 249.27 121.798 245.186 127.07C240.724 128.856 247.873 117.943 246.974 116.477C244.441 114.172 219.702 133.963 216.27 137.084C214.826 138.397 202.113 150.763 203.309 151.827L234.889 136.812C259.378 127.602 285.04 126.739 310.714 130.617C311.696 127.224 309.826 129.08 308.95 128.761C299.007 125.061 290.023 120.722 278.85 121.183C278.435 119.126 286.413 114.231 284.744 112.954V112.942ZM341.003 166.369C329.38 155.09 318.964 169.384 310.157 174.255C290.414 185.179 272.943 172.836 254.585 178.866C232.675 186.078 224.52 212.974 231.894 233.463C234.877 241.751 252.786 261.696 252.786 264.368C252.786 266.78 243.742 277.55 241.636 281.44C226.84 308.715 230.343 344.68 254.04 365.748C301.907 408.309 399.831 373.681 405.122 309.152C406.507 292.269 397.748 298.216 395.061 294.468C393.877 292.813 392.161 275.611 389.202 275.588C368.286 291.844 340.139 301.16 313.708 302.721C300.664 303.489 287.739 301.515 274.742 301.527C271.617 302.118 268.86 305.404 269.404 308.561C288.414 314.508 307.423 315.111 327.237 314.472C326.728 316.4 322.408 317.452 320.692 317.937C303.446 322.76 285.241 320.053 268.244 315.655C269.534 324.285 278.128 328.53 285.703 330.622C311.424 337.751 342.128 330.433 365.824 319.391C372.879 316.104 378.999 311.328 386.266 308.585C372.039 328.589 340.033 339.962 316.087 341.617C294.592 343.107 253.01 338.106 259.319 307.32C261.888 294.764 270.304 291.666 281.856 292.021C311.365 292.931 330.705 293.724 358.734 281.676C378.525 273.164 410.519 249.199 376.454 234.09C364.783 228.911 351.23 232.281 349.691 217.207C348.342 204.001 350.721 175.768 341.015 166.346L341.003 166.369ZM133.367 242.862C93.3237 249.176 94.6257 311.99 136.231 323.115C190.04 337.515 185.14 234.693 133.367 242.862Z" fill="#090902"/>
<path d="M261.142 82.2741C211.417 109.797 168.711 148.186 142.931 199.378C140.705 203.8 131.118 228.308 129.84 229.325C128.786 230.165 121.507 231.843 118.914 233.144C110.795 237.211 106.214 242.117 99.8812 248.395C85.3933 238.949 82.3868 229.562 85.6419 212.88C95.5846 161.912 165.669 82.877 214.826 66.0888C239.257 57.7419 246.489 62.3528 261.142 82.2741Z" fill="#FBDE00"/>
<path d="M133.367 242.862C185.14 234.704 190.04 337.527 136.231 323.115C94.6255 311.978 93.3235 249.164 133.367 242.862ZM147.073 302.283C151.003 306.279 161.029 305.511 161.999 300.912C163.171 295.331 152.861 302.827 151.394 294.989C149.63 285.53 161.822 278.141 153.063 265.065C142.871 249.838 121.85 256.943 119.612 273.932C119.364 275.836 118.796 284.856 123.081 282.114C127.365 279.371 124.821 266.401 138.906 268.588C155.335 271.142 137.166 292.222 147.061 302.283H147.073Z" fill="#FBDE00"/>
<path d="M284.744 112.942C286.413 114.219 278.435 119.126 278.85 121.171C290.023 120.71 299.019 125.037 308.95 128.749C309.826 129.069 311.684 127.212 310.713 130.605C285.04 126.728 259.378 127.591 234.889 136.801L203.309 151.815C202.125 150.763 214.826 138.385 216.27 137.072C219.702 133.963 244.441 114.16 246.974 116.465C247.885 117.92 240.724 128.832 245.186 127.059C249.258 121.798 281.383 110.365 284.744 112.93V112.942Z" fill="#FBDE00"/>
<path d="M147.073 302.283C137.19 292.21 155.347 271.142 138.918 268.588C124.833 266.389 127.212 279.477 123.093 282.114C118.973 284.75 119.376 275.824 119.624 273.932C121.862 256.943 142.883 249.849 153.075 265.065C161.822 278.141 149.63 285.53 151.406 294.989C152.873 302.827 163.183 295.331 162.011 300.912C161.041 305.511 151.015 306.291 147.085 302.283H147.073Z" fill="#090902"/>
<path d="M341.003 166.369C350.709 175.792 348.33 204.024 349.68 217.23C351.218 232.304 364.771 228.935 376.442 234.113C410.508 249.223 378.513 273.187 358.723 281.7C330.694 293.747 311.353 292.967 281.844 292.045C270.28 291.69 261.876 294.787 259.308 307.343C252.999 338.129 294.581 343.131 316.076 341.641C340.021 339.986 372.027 328.6 386.255 308.608C378.987 311.351 372.867 316.127 365.813 319.414C342.128 330.457 311.424 337.775 285.691 330.646C278.128 328.553 269.523 324.309 268.232 315.678C285.23 320.076 303.434 322.784 320.68 317.96C322.396 317.475 326.729 316.423 327.226 314.496C307.411 315.134 288.402 314.52 269.392 308.585C268.86 305.428 271.618 302.141 274.731 301.55C287.727 301.55 300.665 303.513 313.697 302.744C340.128 301.183 368.275 291.867 389.19 275.611C392.137 275.623 393.854 292.837 395.049 294.492C397.736 298.228 406.495 292.293 405.11 309.176C399.819 373.704 301.907 408.333 254.029 365.771C230.332 344.703 226.828 308.75 241.624 281.463C243.731 277.585 252.774 266.815 252.774 264.391C252.774 261.719 234.865 241.774 231.882 233.487C224.508 212.986 232.664 186.089 254.573 178.889C272.932 172.848 290.402 185.203 310.146 174.278C318.952 169.407 329.356 155.102 340.992 166.393L341.003 166.369ZM340.222 224.903C340.909 218.153 340.731 193.419 329.25 196.812C323.071 198.645 326.74 215.433 328.989 220.198C331.724 225.967 334.304 225.104 340.222 224.903ZM295.362 233.144C290.142 220.304 275.394 217.585 263.51 223.142C259.769 224.891 249.448 232.801 259.367 231.985C264.504 231.559 270.292 228.261 275.843 228.403C282.673 228.58 288.544 233.723 295.362 233.144ZM336.328 233.333C331.309 234.74 331.558 246.787 338.388 246.172C345.134 245.569 343.69 231.264 336.328 233.333ZM293.006 242.578C293.065 228.415 263.877 239.292 269.416 244.931C270.256 245.782 288.757 239.989 293.006 242.578ZM316.265 241.585C307.257 243.772 318.857 257.156 323.698 251.469C328.031 246.397 321.225 240.379 316.265 241.585Z" fill="#FBDE00"/>
<path d="M340.222 224.903C334.316 225.104 331.724 225.967 328.989 220.198C326.729 215.433 323.059 198.645 329.25 196.813C340.731 193.419 340.909 218.153 340.222 224.903Z" fill="#090902"/>
<path d="M295.362 233.144C288.544 233.723 282.673 228.568 275.843 228.403C270.292 228.261 264.504 231.559 259.367 231.985C249.436 232.801 259.758 224.891 263.51 223.142C275.394 217.585 290.142 220.304 295.362 233.144Z" fill="#090902"/>
<path d="M293.007 242.578C288.757 240.001 270.245 245.782 269.416 244.931C263.889 239.28 293.078 228.415 293.007 242.578Z" fill="#090902"/>
<path d="M336.328 233.333C343.691 231.264 345.135 245.581 338.388 246.172C331.558 246.775 331.31 234.74 336.328 233.333Z" fill="#090902"/>
<path d="M316.265 241.585C321.225 240.379 328.043 246.397 323.699 251.469C318.846 257.144 307.258 243.772 316.265 241.585Z" fill="#090902"/>
</g>
<defs>
<clipPath id="clip0_183_1148">
<rect width="347" height="374" fill="white" transform="translate(71 48)"/>
</clipPath>
</defs>
</svg>
