<svg width="490" height="470" viewBox="0 0 490 470" fill="none" xmlns="http://www.w3.org/2000/svg">
<g clip-path="url(#clip0_183_1189)">
<path d="M433.119 329.327C439.564 335.789 425.688 345.106 421.062 348.948C396.914 369.039 369.139 383.89 341.328 398.13C340.412 398.6 337.724 398.482 339.673 400.562C340.001 400.914 347.867 403.758 348.724 403.84C364.502 405.32 382.651 372.893 406.94 376.053C421.637 377.968 435.467 396.673 447.769 402.019C451.667 403.71 461.646 403.076 460.976 410.078C460.354 416.564 454.649 416.341 449.495 415.53C434.234 413.121 415.709 388.002 402.338 388.296C388.661 388.601 370.019 414.12 354.323 415.812C329.635 418.479 314.315 388.554 297.892 388.073C281.116 387.579 265.291 419.266 239.594 415.706C224.626 413.627 206.183 388.589 192.648 388.284C178.96 387.979 160.294 413.65 144.493 415.706C123.843 418.397 111.293 399.058 95.1986 390.199C78.8221 381.176 58.8298 410.454 42.7115 414.696C38.4031 415.824 30.2207 417.962 29.1877 411.653C27.6498 402.312 36.654 404.204 42.4885 401.572C44.8598 400.491 68.9257 383.314 69.7122 381.822C70.041 381.188 70.1701 381.011 70.0527 380.271C69.5127 376.911 58.3485 363.259 57.4915 358.665C56.7636 354.776 59.0294 351.274 62.8329 350.393C174.921 345.106 286.833 334.744 398.863 329.045C403.911 328.787 430.771 326.942 433.13 329.316L433.119 329.327Z" fill="#020202"/>
<path d="M80.9116 375.76C80.266 375.348 74.1262 362.612 74.8776 361.884L408.771 342.533C383.836 361.578 356.636 377.757 328.004 390.657C312.977 381.07 302.987 369.638 283.805 379.261C274.19 384.078 255.289 403.029 246.262 403.84C230.531 405.25 212.088 372.928 188.046 376.053C172.761 378.039 152.217 403.523 140.994 404.004C127.517 404.592 107.936 378.333 91.7706 376.042C89.0236 375.654 82.2617 376.594 80.9234 375.748L80.9116 375.76Z" fill="white"/>
<path d="M306.544 319.364C305.758 320.233 302.201 321.596 300.874 321.467C292.046 318.154 283.136 314.617 274.049 312.056C225.683 298.392 172.268 298.38 125.639 318.295C117.199 321.902 102.571 332.382 96.0207 334.379C91.5363 335.754 86.5352 335.19 86.5 329.656C86.4766 326.014 100.094 309.318 103.194 304.031C141.182 239.259 134.831 163.971 105.541 97.2481C101.703 88.5069 89.9162 70.2841 88.0496 63.1641C83.2365 44.7534 105.588 59.1695 111.986 62.6589C196.193 108.574 283.699 194.73 303.973 291.483C305.053 296.63 309.35 316.262 306.556 319.364H306.544Z" fill="#030303"/>
<path d="M256.476 209.44C257.016 210.18 257.614 211.496 257.145 211.825C211.96 244.44 164.227 277.044 118.22 307.932C118.032 308.097 113.877 311.245 113.548 309.706C121.812 296.453 127.823 281.849 132.284 266.893L135.947 261.453C170.637 237.074 205.292 212.729 239.911 188.397L242.424 189.502C247.331 195.999 252.097 202.567 256.487 209.44H256.476Z" fill="#0F8141"/>
<path d="M268.192 230.553L268.908 232.926C243.269 251.454 217.583 270.018 191.862 288.617L183.832 291.53C160.858 293.763 139.727 300.037 118.22 307.944C118.314 307.861 118.021 306.369 119.042 305.582L256.476 209.44C261.183 216.818 264.282 222.951 268.192 230.541V230.553Z" fill="#405FAC"/>
<path d="M193.212 136.737L193.658 139.274C176.765 150.918 159.872 162.561 142.967 174.216L140.49 173.076C136.78 140.05 123.55 106.929 110.038 76.9222C111.564 75.3948 143.19 96.9308 146.723 99.4099C163.006 110.842 178.42 123.46 193.223 136.713L193.212 136.737Z" fill="white"/>
<path d="M228.359 171.913C233.266 177.6 237.892 183.51 242.423 189.502L132.284 266.893C135.442 256.33 139.151 242.537 140.49 231.716L142.65 227.416C170.402 208.535 198.142 189.654 225.871 170.774L228.359 171.913Z" fill="#FDEC0D"/>
<path d="M211.96 154.325C217.583 160 223.147 165.874 228.36 171.913L140.49 231.716C141.605 222.681 141.699 211.578 141.664 202.402L143.307 198.443C165.366 183.357 187.424 168.271 209.482 153.185L211.971 154.325H211.96Z" fill="#F68D1F"/>
<path d="M278.733 254.004L276.785 257.294C259.786 269.677 243.632 281.085 228.348 291.519C212.805 290.261 199.375 290.003 183.82 291.519L268.18 230.541C272.758 239.435 275.082 244.71 278.722 253.992L278.733 254.004Z" fill="#732A84"/>
<path d="M211.96 154.325L141.664 202.402C141.628 193.414 141.476 181.9 140.49 173.088L193.212 136.737C199.88 142.717 205.632 147.933 211.96 154.325Z" fill="#E12026"/>
<path d="M278.734 254.004C285.308 270.782 291.553 287.536 293.96 305.594C272.911 297.71 250.759 293.328 228.36 291.519C226.282 289.04 228.148 289.016 229.839 287.724C245.534 275.798 262.709 265.459 278.734 253.992V254.004Z" fill="#FFFEFE"/>
<path d="M209.295 100.597C213.908 99.2691 229.322 107.74 234.241 110.337C297.881 143.927 348.982 206.103 378.167 271.181C381.313 278.195 394.86 310.024 393.357 315.311C390.74 324.545 380.057 315.816 375.079 314.136C370.102 312.456 361.825 310.846 356.496 310.447C350.708 310.012 332.758 312.949 330.187 309.8C320.068 273.085 307.202 237.062 288.301 203.965C271.549 174.639 248.786 144.585 223.042 122.697C219.637 119.806 207.639 112.416 206.219 110.231C203.859 106.565 205.162 101.783 209.283 100.597H209.295Z" fill="#020202"/>
<path d="M375.983 300.895C363.997 298.18 352.07 298.486 339.837 298.392C324.2 242.267 299.43 188.01 261.171 143.786C262.439 142.635 269.6 148.521 271.103 149.672C318.354 185.918 356.472 245.087 375.995 300.906L375.983 300.895Z" fill="white"/>
</g>
<defs>
<clipPath id="clip0_183_1189">
<rect width="432" height="362" fill="white" transform="translate(29 54)"/>
</clipPath>
</defs>
</svg>
