<svg width="490" height="470" viewBox="0 0 490 470" fill="none" xmlns="http://www.w3.org/2000/svg">
<g clip-path="url(#clip0_183_1223)">
<path d="M419.579 326.841C407.436 340.479 390.362 350.311 372.803 355.299C364.401 396.324 330.148 428.574 288.598 434.123C257.64 438.256 227.568 427.532 205.148 406.276C200.682 407.658 196.131 409.171 191.515 409.987C151.52 417.049 110.281 398.773 89.0357 364.224C74.7573 341.01 70.8664 313.348 77.3179 286.827C60.6789 270.89 48.5511 250.155 45.0953 227.081C37.6735 177.511 68.7809 128.322 117.332 115.801C124.109 81.0067 150.46 51.5865 184.123 40.8032C219.962 29.3236 257.51 38.8999 284.627 64.3483C289.258 63.6521 293.974 61.6687 298.64 60.8874C348.797 52.453 398.394 82.7396 412.052 131.898C416.953 149.528 416.538 166.748 412.882 184.578C420.509 192.151 427.566 200.22 432.882 209.626C454.652 248.142 448.711 294.12 419.579 326.846V326.841ZM174.896 248.237V129.645C174.896 127.276 179.492 122.082 181.733 120.975L259.861 75.5925C260.031 74.746 255.755 72.2417 254.825 71.6407C206.248 40.3374 141.178 72.9129 137.917 131.147C136.217 161.539 139.082 193.538 138.032 224.096C138.597 226.58 139.418 228.137 141.443 229.685L173.906 248.743L174.896 248.237ZM197.886 142.652V180.181L199.082 180.892L297.515 123.304C301.091 121.33 305.002 120.028 309.068 121.416L390.597 168.896C391.762 169.237 391.787 165.956 391.837 165.195C395.593 107.151 334.859 65.5804 282.341 90.1022C255.33 102.714 229.174 122.668 202.217 135.98C199.997 137.523 198.251 139.932 197.886 142.657V142.652ZM114.422 142.401C87.9304 152.468 69.296 179.409 67.9207 207.683C66.6054 234.674 80.0385 262.336 102.669 277.016C128.02 293.464 156.512 306.932 182.283 322.904C185.879 323.74 187.929 322.308 190.905 320.8C201.012 315.672 210.969 308.875 220.872 303.275L120.453 244.696C117.652 242.562 114.422 238.36 114.422 234.724V142.401ZM375.818 234.724V328.549C399.544 319.919 417.048 296.384 421.164 271.617C425.07 248.096 417.243 223.62 401.565 205.945C394.418 197.886 386.256 193.288 377.154 187.854C354.308 174.216 330.798 161.614 307.832 148.176C305.367 147.029 303.076 147.891 300.841 149.153L269.668 166.888L269.353 168.18L367.481 225.072C370.787 226.795 375.113 230.972 375.823 234.734L375.818 234.724ZM197.991 207.552L198.351 263.277L245.078 289.527L291.609 263.503L291.879 208.674L291.048 207.001L244.647 181.428L197.991 207.552ZM315.344 222.463V339.803C315.344 340.489 313.964 344.105 313.469 344.931C312.433 346.659 309.803 348.918 308.107 350.07L230.399 395.397C230.254 396.099 230.999 396.424 231.414 396.81C235.56 400.671 246.753 405.71 252.264 407.463C298.505 422.158 348.652 391.556 352.328 342.302L352.213 245.853C351.688 242.948 348.557 241.24 346.296 239.767C337.054 233.757 326.447 229.004 317.205 222.858L315.349 222.468L315.344 222.463ZM291.854 290.018L192.725 347.145C187.354 349.86 184.798 350.771 178.872 348.332L99.6482 302.544C98.6629 302.229 98.4879 305.124 98.4329 305.78C93.2716 365.827 158.352 406.236 210.824 379.27C237.056 365.787 262.287 348.187 288.523 334.464C289.473 334.203 291.854 330.261 291.854 329.791V290.008V290.018Z" fill="#22E6BF"/>
</g>
<defs>
<clipPath id="clip0_183_1223">
<rect width="402" height="399" fill="white" transform="translate(44 36)"/>
</clipPath>
</defs>
</svg>
