<svg width="490" height="470" viewBox="0 0 490 470" fill="none" xmlns="http://www.w3.org/2000/svg">
<g clip-path="url(#clip0_183_1076)">
<g clip-path="url(#clip1_183_1076)">
<path d="M245.499 279.356C270.273 279.356 290.356 259.273 290.356 234.499C290.356 209.725 270.273 189.642 245.499 189.642C220.725 189.642 200.642 209.725 200.642 234.499C200.642 259.273 220.725 279.356 245.499 279.356Z" fill="#58C4DC"/>
<path d="M245.497 335.43C369.367 335.43 469.783 290.243 469.783 234.502C469.783 178.76 369.367 133.573 245.497 133.573C121.628 133.573 21.2114 178.76 21.2114 234.502C21.2114 290.243 121.628 335.43 245.497 335.43Z" stroke="#58C4DC" stroke-width="12.0476"/>
<path d="M158.089 284.966C220.024 392.241 309.365 456.61 357.639 428.739C405.912 400.869 394.837 291.312 332.903 184.038C270.968 76.7637 181.626 12.3944 133.353 40.2651C85.0797 68.1357 96.1544 177.692 158.089 284.966Z" stroke="#58C4DC" stroke-width="12.0476"/>
<path d="M158.092 184.037C96.1573 291.311 85.0825 400.867 133.356 428.738C181.629 456.609 270.971 392.239 332.905 284.965C394.84 177.691 405.915 68.1344 357.642 40.2637C309.368 12.3931 220.027 76.7624 158.092 184.037Z" stroke="#58C4DC" stroke-width="12.0476"/>
</g>
</g>
<defs>
<clipPath id="clip0_183_1076">
<rect width="490" height="470" fill="white"/>
</clipPath>
<clipPath id="clip1_183_1076">
<rect width="471" height="471" fill="white" transform="translate(10 -1)"/>
</clipPath>
</defs>
</svg>
