<svg width="48" height="48" viewBox="0 0 48 48" fill="none" xmlns="http://www.w3.org/2000/svg">
<g clip-path="url(#clip0_25_707)">
<path d="M24 0.5C37 0.5 47.5 11 47.5 24C47.5 37 37 47.5 24 47.5C11 47.5 0.5 37 0.5 24C0.5 11 11 0.5 24 0.5Z" stroke="#5BDEB8"/>
<path d="M16.6783 31.7049C15.2216 31.5707 13.7841 30.8999 12.6725 29.7307C10.1425 27.0666 10.1425 22.6966 12.6725 20.0324L16.87 15.6241C19.4 12.9599 23.5591 12.9599 26.1083 15.6241C28.6383 18.2883 28.6383 22.6583 26.1083 25.3224L24.0191 27.5266" stroke="#5BDEB8" stroke-width="1.5" stroke-linecap="round" stroke-linejoin="round"/>
<path d="M31.3217 16.2949C32.7783 16.4291 34.2158 17.0999 35.3275 18.2691C37.8575 20.9333 37.8575 25.3032 35.3275 27.9674L31.13 32.3757C28.6 35.0399 24.4408 35.0399 21.8916 32.3757C19.3616 29.7116 19.3616 25.3416 21.8916 22.6774L23.9808 20.4732" stroke="#5BDEB8" stroke-width="1.5" stroke-linecap="round" stroke-linejoin="round"/>
</g>
<defs>
<clipPath id="clip0_25_707">
<rect width="48" height="48" fill="white"/>
</clipPath>
</defs>
</svg>
