<svg width="490" height="470" viewBox="0 0 490 470" fill="none" xmlns="http://www.w3.org/2000/svg">
<g clip-path="url(#clip0_183_1125)">
<path fill-rule="evenodd" clip-rule="evenodd" d="M45.7408 27.4814H434.013C442.706 27.4814 449.754 34.4496 449.754 43.0453V426.955C449.754 435.551 442.706 442.518 434.013 442.518H45.7408C37.0474 442.518 30 435.551 30 426.955V43.0453C30 34.4496 37.0474 27.4814 45.7408 27.4814ZM263.339 248.288V214.248H113.951V248.288H167.285V399.849H209.743V248.288H263.339ZM280.266 395.848C287.112 399.299 295.21 401.888 304.558 403.614C313.908 405.339 323.76 406.203 334.118 406.203C344.213 406.203 353.802 405.253 362.888 403.355C371.973 401.457 379.938 398.328 386.785 393.97C393.632 389.612 399.053 383.918 403.046 376.885C407.04 369.852 409.037 361.158 409.037 350.803C409.037 343.296 407.896 336.718 405.613 331.065C403.332 325.413 400.041 320.386 395.739 315.985C391.438 311.584 386.281 307.636 380.267 304.142C374.254 300.648 367.475 297.347 359.926 294.24C354.395 291.996 349.435 289.817 345.047 287.703C340.657 285.59 336.926 283.432 333.855 281.232C330.782 279.031 328.413 276.702 326.745 274.242C325.077 271.783 324.244 268.999 324.244 265.893C324.244 263.045 324.989 260.478 326.482 258.193C327.974 255.905 330.08 253.942 332.801 252.302C335.523 250.663 338.858 249.391 342.809 248.484C346.758 247.579 351.148 247.125 355.975 247.125C359.487 247.125 363.195 247.384 367.101 247.901C371.007 248.42 374.936 249.218 378.885 250.296C382.836 251.375 386.676 252.733 390.407 254.374C394.138 256.014 397.582 257.912 400.743 260.068V221.368C394.334 218.951 387.334 217.16 379.741 215.996C372.149 214.831 363.436 214.248 353.604 214.248C343.599 214.248 334.118 215.305 325.165 217.42C316.211 219.533 308.333 222.835 301.53 227.322C294.727 231.809 289.35 237.525 285.401 244.471C281.45 251.418 279.476 259.723 279.476 269.387C279.476 281.728 283.096 292.256 290.338 300.97C297.581 309.686 308.574 317.064 323.321 323.104C329.116 325.435 334.513 327.721 339.517 329.965C344.52 332.208 348.843 334.539 352.485 336.954C356.128 339.371 359.003 342.001 361.11 344.849C363.217 347.697 364.271 350.933 364.271 354.558C364.271 357.233 363.612 359.714 362.295 362C360.978 364.287 358.981 366.271 356.304 367.954C353.627 369.636 350.292 370.953 346.298 371.902C342.304 372.851 337.629 373.325 332.275 373.325C323.145 373.325 314.104 371.751 305.15 368.602C296.198 365.452 287.902 360.727 280.266 354.428V395.848Z" fill="#47A0D8"/>
</g>
<defs>
<clipPath id="clip0_183_1125">
<rect width="431" height="415.037" fill="white" transform="translate(30 27.4814)"/>
</clipPath>
</defs>
</svg>
